<svg width="18" height="18" viewBox="0 0 18 18" fill="none" xmlns="http://www.w3.org/2000/svg">
<path d="M9.83341 12.3334H11.0834C11.3135 12.3334 11.5001 12.5199 11.5001 12.75C11.5001 12.9801 11.3135 13.1667 11.0834 13.1667H7.75008C7.51996 13.1667 7.33341 12.9801 7.33341 12.75C7.33341 12.5199 7.51996 12.3334 7.75008 12.3334H9.00008V8.16669H7.75008C7.51996 8.16669 7.33341 7.98014 7.33341 7.75002C7.33341 7.5199 7.51996 7.33335 7.75008 7.33335H9.41675C9.64687 7.33335 9.83341 7.5199 9.83341 7.75002V12.3334ZM9.00008 17.3334C4.39771 17.3334 0.666748 13.6024 0.666748 9.00002C0.666748 4.39765 4.39771 0.666687 9.00008 0.666687C13.6025 0.666687 17.3334 4.39765 17.3334 9.00002C17.3334 13.6024 13.6025 17.3334 9.00008 17.3334ZM9.00008 16.5C13.1422 16.5 16.5001 13.1422 16.5001 9.00002C16.5001 4.85788 13.1422 1.50002 9.00008 1.50002C4.85795 1.50002 1.50008 4.85788 1.50008 9.00002C1.50008 13.1422 4.85795 16.5 9.00008 16.5ZM8.58341 4.83335H9.41675C9.64687 4.83335 9.83341 5.0199 9.83341 5.25002V6.08335C9.83341 6.31347 9.64687 6.50002 9.41675 6.50002H8.58341C8.3533 6.50002 8.16675 6.31347 8.16675 6.08335V5.25002C8.16675 5.0199 8.3533 4.83335 8.58341 4.83335Z" fill="#494949"/>
</svg>
