<svg width="24" height="24" viewBox="0 0 24 24" fill="none" xmlns="http://www.w3.org/2000/svg">
<path d="M6.00008 5.99968C8.00011 3.99964 14.1978 2.21847 17.9999 6.00011C22.4818 10.5025 20.0003 15.9999 18.0003 17.9999C16.0003 19.9999 10.8002 22.8 6.00008 17.9999" stroke="#494949" stroke-linecap="round"/>
<line x1="0.5" y1="-0.5" x2="2.49486" y2="-0.5" transform="matrix(0 1 1 0 6.01025 4.01367)" stroke="#494949" stroke-linecap="round"/>
<line x1="0.5" y1="-0.5" x2="2.49486" y2="-0.5" transform="matrix(1 -8.74228e-08 -8.74228e-08 -1 5.01196 6.01013)" stroke="#494949" stroke-linecap="round"/>
<path d="M8.83963 15H11.5596V14.496H10.4796L10.5516 13.592V9.512L10.1116 9.408C9.67963 9.648 9.22363 9.848 8.73563 9.96L8.82363 10.496H8.94363C9.29563 10.408 9.59163 10.248 9.89563 10.016H9.99963L9.83963 11.096V13.592L9.91163 14.496H8.83963V15ZM12.7538 14.592C13.0098 14.84 13.5298 15.096 14.2498 15.096C15.3858 15.096 15.8738 14.28 15.8738 13.272C15.8738 12.128 15.2978 11.552 14.4738 11.552C14.0818 11.552 13.8498 11.648 13.6418 11.792H13.5538L13.7218 11.136L13.7618 10.608L13.7218 10.04H15.5858L15.6178 9.464H13.2418L13.0338 12.176L13.3538 12.368C13.5378 12.232 13.7778 12.048 14.2018 12.048C14.7698 12.048 15.1458 12.48 15.1458 13.264C15.1458 14.048 14.8658 14.52 14.2018 14.52C13.6978 14.52 13.3938 14.328 13.1778 14.08H13.0258L12.7538 14.592Z" fill="#494949"/>
</svg>
