<svg width="24" height="24" viewBox="0 0 24 24" fill="none" xmlns="http://www.w3.org/2000/svg">
<path d="M17.9999 5.99968C15.9999 3.99964 9.80224 2.21847 6.00014 6.00011C1.51824 10.5025 3.99967 15.9999 5.99971 17.9999C7.99975 19.9999 13.1998 22.8 17.9999 17.9999" stroke="#494949" stroke-linecap="round"/>
<line x1="18.4897" y1="4.51367" x2="18.4897" y2="6.50853" stroke="#494949" stroke-linecap="round"/>
<line x1="18.488" y1="6.51013" x2="16.4932" y2="6.51013" stroke="#494949" stroke-linecap="round"/>
<path d="M7.824 15H10.544V14.496H9.464L9.536 13.592V9.512L9.096 9.408C8.664 9.648 8.208 9.848 7.72 9.96L7.808 10.496H7.928C8.28 10.408 8.576 10.248 8.88 10.016H8.984L8.824 11.096V13.592L8.896 14.496H7.824V15ZM11.7382 14.592C11.9942 14.84 12.5142 15.096 13.2342 15.096C14.3702 15.096 14.8582 14.28 14.8582 13.272C14.8582 12.128 14.2822 11.552 13.4582 11.552C13.0662 11.552 12.8342 11.648 12.6262 11.792H12.5382L12.7062 11.136L12.7462 10.608L12.7062 10.04H14.5702L14.6022 9.464H12.2262L12.0182 12.176L12.3382 12.368C12.5222 12.232 12.7622 12.048 13.1862 12.048C13.7542 12.048 14.1302 12.48 14.1302 13.264C14.1302 14.048 13.8502 14.52 13.1862 14.52C12.6822 14.52 12.3782 14.328 12.1622 14.08H12.0102L11.7382 14.592Z" fill="#494949"/>
</svg>
